<svg width="14" height="15" viewBox="0 0 14 15" fill="none" xmlns="http://www.w3.org/2000/svg">
<path d="M6.37939 0.29248C5.82715 0.29248 5.37939 0.740234 5.37939 1.29248V1.62006C2.33636 2.10236 0 4.73651 0 7.91309C0 11.4307 2.86182 14.2925 6.37939 14.2925C9.55597 14.2925 12.1901 11.9561 12.6724 8.91309H13C13.5522 8.91309 14 8.46533 14 7.91309C14 3.71094 10.5815 0.29248 6.37939 0.29248ZM6.37939 12.2925C3.96436 12.2925 2 10.3281 2 7.91309C2 5.84344 3.44678 4.11469 5.37939 3.65967V7.91309C5.37939 8.46533 5.82715 8.91309 6.37939 8.91309H10.6328C10.1778 10.8457 8.44904 12.2925 6.37939 12.2925ZM7.37939 6.91309V2.38135C9.67871 2.79639 11.4961 4.61377 11.9111 6.91309H7.37939Z" fill="white"/>
</svg>
