<svg width="30" height="32" viewBox="0 0 30 32" fill="none" xmlns="http://www.w3.org/2000/svg">
<path d="M15.0006 32.132C14.7859 32.132 14.5725 32.0768 14.3801 31.9657L1.48383 24.5202C1.09977 24.2987 0.863373 23.8885 0.863373 23.4455V8.55447C0.863373 8.11146 1.09977 7.70133 1.48383 7.47983L14.3801 0.0342926C14.7642 -0.187212 15.237 -0.187212 15.621 0.0342926L28.5161 7.47983C28.9002 7.70133 29.1366 8.11146 29.1366 8.55447V23.4455C29.1366 23.8885 28.9002 24.2987 28.5161 24.5202L15.621 31.9657C15.4287 32.0768 15.2153 32.132 15.0006 32.132ZM3.34522 22.7289L15.0006 29.4578L26.6547 22.7289V9.2711L15.0006 2.5422L3.34522 9.2711V22.7289Z" fill="white"/>
<path d="M15.0006 32.132C14.3156 32.132 13.7597 31.576 13.7597 30.891V16C13.7597 15.315 14.3156 14.759 15.0006 14.759C15.6856 14.759 16.2416 15.315 16.2416 16V30.891C16.2416 31.576 15.6856 32.132 15.0006 32.132Z" fill="white"/>
<path d="M14.9994 17.2408C14.7891 17.2408 14.5756 17.1875 14.3802 17.0739L1.48391 9.6284C0.890126 9.28653 0.687236 8.5277 1.02911 7.93392C1.37223 7.34014 2.12857 7.136 2.72421 7.47974L15.6205 14.9253C16.2143 15.2678 16.4172 16.0266 16.0747 16.6204C15.8451 17.0187 15.4282 17.2408 14.9994 17.2408Z" fill="white"/>
<path d="M15.0019 17.2408C14.5731 17.2408 14.1562 17.0181 13.926 16.6204C13.5835 16.0266 13.7864 15.2678 14.3802 14.9253L27.2752 7.47974C27.8684 7.136 28.6272 7.34014 28.9703 7.93392C29.3128 8.5277 29.1099 9.28652 28.5161 9.62902L15.6211 17.0746C15.4263 17.1875 15.2122 17.2408 15.0019 17.2408Z" fill="white"/>
</svg>
