<svg width="1560" height="88" viewBox="0 0 1560 88" fill="none" xmlns="http://www.w3.org/2000/svg">
<rect width="332" height="88" rx="12" fill="white" fill-opacity="0.2"/>
<rect x="16" y="16" width="56" height="56" rx="8" fill="white" fill-opacity="0.4"/>
<path d="M55 32.1162H33C31.3457 32.1162 30 33.4619 30 35.1162V51.1162C30 52.7705 31.3457 54.1162 33 54.1162H37V54.8838C37 55.436 37.4478 55.8838 38 55.8838H50C50.5522 55.8838 51 55.436 51 54.8838V54.1162H55C56.6543 54.1162 58 52.7705 58 51.1162V35.1162C58 33.4619 56.6543 32.1162 55 32.1162ZM56 51.1162C56 51.6675 55.5513 52.1162 55 52.1162H51V51.3481C51 50.7959 50.5522 50.3481 50 50.3481H38C37.4478 50.3481 37 50.7959 37 51.3481V52.1162H33C32.4487 52.1162 32 51.6675 32 51.1162V35.1162C32 34.5649 32.4487 34.1162 33 34.1162H55C55.5513 34.1162 56 34.5649 56 35.1162V51.1162ZM39 53.8838V52.3481H49V53.8838H39Z" fill="white"/>
<path d="M43.3794 35.2925C42.8271 35.2925 42.3794 35.7402 42.3794 36.2925V36.6201C39.3364 37.1024 37 39.7365 37 42.9131C37 46.4307 39.8618 49.2925 43.3794 49.2925C46.556 49.2925 49.1901 46.9561 49.6724 43.9131H50C50.5522 43.9131 51 43.4653 51 42.9131C51 38.7109 47.5815 35.2925 43.3794 35.2925ZM43.3794 47.2925C40.9644 47.2925 39 45.3281 39 42.9131C39 40.8434 40.4468 39.1147 42.3794 38.6597V42.9131C42.3794 43.4653 42.8271 43.9131 43.3794 43.9131H47.6328C47.1778 45.8457 45.449 47.2925 43.3794 47.2925ZM44.3794 41.9131V37.3813C46.6787 37.7964 48.4961 39.6138 48.9111 41.9131H44.3794Z" fill="white"/>
<path d="M96.936 35.248H107.568V37.792H96.936V35.248ZM102.288 38.776C105.12 38.776 107.16 40.96 107.16 44.08C107.16 47.176 105.12 49.36 102.288 49.36C99.48 49.36 97.416 47.176 97.416 44.08C97.416 40.96 99.48 38.776 102.288 38.776ZM102.288 41.44C101.088 41.44 100.248 42.4 100.248 44.08C100.248 45.76 101.088 46.696 102.288 46.696C103.488 46.696 104.352 45.76 104.352 44.08C104.352 42.4 103.488 41.44 102.288 41.44ZM113.016 31.912H116.064V54.136H113.016V31.912ZM110.352 40.936H114.024V43.504H110.352V40.936ZM108.36 32.32H111.336V53.2H108.36V32.32ZM100.728 32.512H103.872V36.856H100.728V32.512ZM124.558 43.024H127.774V47.704H124.558V43.024ZM126.19 33.208C129.694 33.208 132.31 35.488 132.31 38.68C132.31 41.872 129.694 44.152 126.19 44.152C122.71 44.152 120.046 41.872 120.046 38.68C120.046 35.488 122.71 33.208 126.19 33.208ZM126.19 35.944C124.486 35.944 123.19 36.928 123.19 38.68C123.19 40.408 124.486 41.44 126.19 41.44C127.894 41.44 129.19 40.408 129.19 38.68C129.19 36.928 127.894 35.944 126.19 35.944ZM134.398 31.888H137.59V54.184H134.398V31.888ZM119.518 49.72L119.134 47.152C123.046 47.152 128.494 47.104 133.174 46.408L133.414 48.712C128.59 49.672 123.358 49.72 119.518 49.72ZM145.866 34H156.498V48.736H145.866V34ZM153.354 36.496H149.01V46.216H153.354V36.496ZM159.402 31.912H162.618V54.136H159.402V31.912ZM161.898 40.288H165.834V42.928H161.898V40.288ZM174.065 34.408H177.065C177.065 40.744 175.529 45.928 168.953 49.768L167.177 47.56C172.625 44.392 174.065 40.48 174.065 34.96V34.408ZM168.425 34.408H175.049V36.952H168.425V34.408ZM174.113 39.472V41.848L167.681 42.52L167.297 39.832L174.113 39.472ZM175.241 40.312H179.801V42.832H175.241V40.312ZM183.377 31.912H186.425V54.136H183.377V31.912ZM178.721 32.392H181.697V53.152H178.721V32.392ZM190.575 41.872H192.471C197.055 41.872 199.719 41.824 202.767 41.344L203.079 43.816C199.959 44.344 197.151 44.392 192.471 44.392H190.575V41.872ZM190.575 33.448H201.255V35.968H193.743V42.904H190.575V33.448ZM192.759 37.672H200.607V40.12H192.759V37.672ZM204.615 31.936H207.831V45.352H204.615V31.936ZM200.319 45.688C204.999 45.688 207.927 47.248 207.927 49.912C207.927 52.6 204.999 54.136 200.319 54.136C195.615 54.136 192.711 52.6 192.711 49.912C192.711 47.248 195.615 45.688 200.319 45.688ZM200.319 48.136C197.415 48.136 195.903 48.712 195.903 49.912C195.903 51.136 197.415 51.712 200.319 51.712C203.199 51.712 204.735 51.136 204.735 49.912C204.735 48.712 203.199 48.136 200.319 48.136Z" fill="white"/>
<rect x="342" width="332" height="88" rx="12" fill="white" fill-opacity="0.2"/>
<rect x="358" y="16" width="56" height="56" rx="8" fill="white" fill-opacity="0.4"/>
<path d="M395 30H377C374.243 30 372 32.2432 372 35V53C372 55.7568 374.243 58 377 58H395C397.757 58 400 55.7568 400 53V35C400 32.2432 397.757 30 395 30ZM395 56H377C375.346 56 374 54.6543 374 53V45.5H380.799C382.528 45.5 384.14 46.2744 385.219 47.625C386.681 49.4521 388.861 50.5 391.201 50.5H398V53C398 54.6543 396.654 56 395 56ZM377 32H395C396.654 32 398 33.3457 398 35V48.5H391.201C389.472 48.5 387.86 47.7256 386.781 46.375C385.319 44.5479 383.139 43.5 380.799 43.5H374V35C374 33.3457 375.346 32 377 32Z" fill="white"/>
<path d="M392 42C394.206 42 396 40.2061 396 38C396 35.7939 394.206 34 392 34C389.794 34 388 35.7939 388 38C388 40.2061 389.794 42 392 42ZM392 36C393.103 36 394 36.8975 394 38C394 39.1025 393.103 40 392 40C390.897 40 390 39.1025 390 38C390 36.8975 390.897 36 392 36Z" fill="white"/>
<path d="M439.464 33.856H451.752V36.4H439.464V33.856ZM439.176 49.12L438.864 46.504C442.704 46.504 447.912 46.456 452.28 45.928L452.496 48.232C448.032 49.024 442.968 49.12 439.176 49.12ZM441.312 35.944H444.408V47.152H441.312V35.944ZM446.568 35.944H449.664V47.152H446.568V35.944ZM454.44 31.912H457.608V54.136H454.44V31.912ZM451.128 39.976H456.792V42.544H451.128V39.976ZM463.606 32.296H466.75V33.76H475.414V32.296H478.582V39.736H463.606V32.296ZM466.75 36.088V37.384H475.414V36.088H466.75ZM461.038 40.936H481.126V43.432H461.038V40.936ZM463.342 44.704H478.702V50.344H466.51V52.36H463.366V48.16H475.558V47.032H463.342V44.704ZM463.366 51.616H479.278V53.992H463.366V51.616ZM498.428 31.888H501.62V54.184H498.428V31.888ZM484.316 46.408H486.284C490.22 46.408 493.364 46.264 496.892 45.664L497.204 48.232C493.604 48.88 490.34 49 486.284 49H484.316V46.408ZM484.292 33.784H494.78V42.376H487.556V47.368H484.316V39.856H491.516V36.328H484.292V33.784ZM520.602 31.888H523.842V54.184H520.602V31.888ZM516.618 36.328H522.378V38.92H516.618V36.328ZM516.618 41.728H522.378V44.368H516.618V41.728ZM510.354 33.616H512.922V36.832C512.922 42.424 511.026 47.56 506.874 49.648L504.882 47.104C508.674 45.352 510.354 41.056 510.354 36.832V33.616ZM511.026 33.616H513.57V36.832C513.57 41.104 515.178 45.232 518.85 46.888L516.93 49.432C512.778 47.392 511.026 42.424 511.026 36.832V33.616Z" fill="white"/>
<rect x="684" width="332" height="88" rx="12" fill="white" fill-opacity="0.2"/>
<rect x="700" y="16" width="56" height="56" rx="8" fill="white" fill-opacity="0.4"/>
<g clip-path="url(#clip0_2_8363)">
<path d="M728.001 60.132C727.786 60.132 727.572 60.0768 727.38 59.9657L714.484 52.5202C714.1 52.2987 713.863 51.8885 713.863 51.4455V36.5545C713.863 36.1115 714.1 35.7013 714.484 35.4798L727.38 28.0343C727.764 27.8128 728.237 27.8128 728.621 28.0343L741.516 35.4798C741.9 35.7013 742.137 36.1115 742.137 36.5545V51.4455C742.137 51.8885 741.9 52.2987 741.516 52.5202L728.621 59.9657C728.429 60.0768 728.215 60.132 728.001 60.132ZM716.345 50.7289L728.001 57.4578L739.655 50.7289V37.2711L728.001 30.5422L716.345 37.2711V50.7289Z" fill="white"/>
<path d="M728.001 60.132C727.316 60.132 726.76 59.576 726.76 58.891V44C726.76 43.315 727.316 42.759 728.001 42.759C728.686 42.759 729.242 43.315 729.242 44V58.891C729.242 59.576 728.686 60.132 728.001 60.132Z" fill="white"/>
<path d="M727.999 45.2408C727.789 45.2408 727.576 45.1875 727.38 45.0739L714.484 37.6284C713.89 37.2865 713.687 36.5277 714.029 35.9339C714.372 35.3401 715.129 35.136 715.724 35.4797L728.621 42.9253C729.214 43.2678 729.417 44.0266 729.075 44.6204C728.845 45.0187 728.428 45.2408 727.999 45.2408Z" fill="white"/>
<path d="M728.002 45.2408C727.573 45.2408 727.156 45.0181 726.926 44.6204C726.584 44.0266 726.786 43.2678 727.38 42.9253L740.275 35.4797C740.868 35.136 741.627 35.3401 741.97 35.9339C742.313 36.5277 742.11 37.2865 741.516 37.629L728.621 45.0746C728.426 45.1875 728.212 45.2408 728.002 45.2408Z" fill="white"/>
</g>
<path d="M797.016 31.912H800.064V54.136H797.016V31.912ZM794.136 40.384H797.808V42.952H794.136V40.384ZM787.848 34.48H790.872C790.872 40.864 789.312 46.024 782.688 49.888L780.912 47.632C786.384 44.464 787.848 40.576 787.848 35.056V34.48ZM782.232 34.48H788.856V37.048H782.232V34.48ZM792.12 32.392H795.096V53.176H792.12V32.392ZM787.896 39.496V41.848L781.44 42.544L781.08 39.856L787.896 39.496ZM805.39 42.16H821.014V44.704H805.39V42.16ZM803.062 48.856H823.174V51.472H803.062V48.856ZM805.39 33.736H820.846V36.328H808.558V43.216H805.39V33.736ZM830.9 43.312H834.092V48.184H830.9V43.312ZM840.644 31.912H843.836V48.736H840.644V31.912ZM827.828 51.208H844.316V53.752H827.828V51.208ZM827.828 47.152H831.02V51.88H827.828V47.152ZM825.428 44.272L825.044 41.728C829.1 41.728 834.524 41.68 839.18 41.08L839.372 43.36C834.644 44.152 829.436 44.272 825.428 44.272ZM836.444 44.824H841.34V47.008H836.444V44.824ZM832.196 32.68C835.436 32.68 837.716 34.288 837.716 36.64C837.716 39.016 835.436 40.6 832.196 40.6C828.932 40.6 826.652 39.016 826.652 36.64C826.652 34.288 828.932 32.68 832.196 32.68ZM832.196 35.008C830.708 35.008 829.676 35.56 829.676 36.64C829.676 37.72 830.708 38.272 832.196 38.272C833.66 38.272 834.692 37.72 834.692 36.64C834.692 35.56 833.66 35.008 832.196 35.008ZM852.498 57.496C850.962 56.04 849.746 54.12 848.85 51.736C847.97 49.352 847.53 46.776 847.53 44.008C847.53 41.24 847.97 38.664 848.85 36.28C849.746 33.896 850.962 31.976 852.498 30.52H857.634V31.024C856.082 32.656 854.858 34.624 853.962 36.928C853.066 39.216 852.618 41.576 852.618 44.008C852.618 46.456 853.066 48.832 853.962 51.136C854.858 53.424 856.082 55.384 857.634 57.016V57.496H852.498ZM874.36 31.912H877.384V54.136H874.36V31.912ZM867.04 39.496H870.712V42.088H867.04V39.496ZM869.872 32.272H872.848V53.128H869.872V32.272ZM862.24 35.536H864.64V37.816C864.64 42.808 863.272 47.776 859.744 49.984L857.848 47.632C861.112 45.592 862.24 41.608 862.24 37.816V35.536ZM862.96 35.536H865.336V37.816C865.336 41.512 866.44 45.256 869.656 47.128L867.784 49.456C864.256 47.368 862.96 42.712 862.96 37.816V35.536ZM858.688 34.144H868.6V36.712H858.688V34.144ZM882.734 41.824H898.358V44.368H882.734V41.824ZM880.406 49.024H900.518V51.64H880.406V49.024ZM888.83 42.976H892.022V49.864H888.83V42.976ZM882.734 33.424H898.19V35.992H885.926V42.928H882.734V33.424ZM907.452 33.616H910.044V36.856C910.044 42.352 908.124 47.512 903.924 49.576L902.004 47.008C905.748 45.256 907.452 40.984 907.452 36.856V33.616ZM908.1 33.616H910.644V36.856C910.644 40.84 912.228 44.896 915.78 46.624L913.86 49.168C909.852 47.128 908.1 42.184 908.1 36.856V33.616ZM916.668 31.912H919.884V54.136H916.668V31.912ZM919.164 40.456H923.1V43.12H919.164V40.456ZM923.29 57.496V57.016C924.842 55.384 926.066 53.424 926.962 51.136C927.858 48.832 928.306 46.456 928.306 44.008C928.306 41.576 927.858 39.216 926.962 36.928C926.066 34.624 924.842 32.656 923.29 31.024V30.52H928.426C929.962 31.976 931.17 33.896 932.05 36.28C932.946 38.664 933.394 41.24 933.394 44.008C933.394 46.776 932.946 49.352 932.05 51.736C931.17 54.12 929.962 56.04 928.426 57.496H923.29Z" fill="white"/>
<rect x="1026" width="332" height="88" rx="12" fill="white" fill-opacity="0.2"/>
<rect x="1042" y="16" width="56" height="56" rx="8" fill="white" fill-opacity="0.4"/>
<path d="M1082.96 43H1081.7C1081.48 40.34 1080.35 37.7428 1078.32 35.7119C1076.29 33.6818 1073.7 32.5586 1071.04 32.332V31C1071.04 30.4478 1070.59 30 1070.04 30C1069.49 30 1069.04 30.4478 1069.04 31V32.3316C1066.38 32.5567 1063.78 33.6799 1061.75 35.7119C1059.72 37.7428 1058.59 40.34 1058.37 43H1057.04C1056.48 43 1056.04 43.4478 1056.04 44C1056.04 44.5522 1056.48 45 1057.04 45H1058.37C1058.59 47.66 1059.72 50.2572 1061.75 52.2881C1063.78 54.3201 1066.38 55.4433 1069.04 55.6683V57C1069.04 57.5522 1069.49 58 1070.04 58C1070.59 58 1071.04 57.5522 1071.04 57V55.668C1073.7 55.4413 1076.29 54.3182 1078.32 52.2881C1080.35 50.2572 1081.48 47.66 1081.7 45H1082.96C1083.52 45 1083.96 44.5522 1083.96 44C1083.96 43.4478 1083.52 43 1082.96 43ZM1076.91 50.874C1075.27 52.5138 1073.18 53.4409 1071.04 53.6618V52.4424C1071.04 51.8901 1070.59 51.4424 1070.04 51.4424C1069.49 51.4424 1069.04 51.8901 1069.04 52.4424V53.663C1066.89 53.4436 1064.8 52.5159 1063.16 50.874C1061.52 49.233 1060.59 47.1462 1060.37 45H1061.59C1062.15 45 1062.59 44.5522 1062.59 44C1062.59 43.4478 1062.15 43 1061.59 43H1060.37C1060.59 40.8538 1061.52 38.767 1063.16 37.126C1064.8 35.4843 1066.89 34.5564 1069.04 34.3369V35.5576C1069.04 36.1099 1069.49 36.5576 1070.04 36.5576C1070.59 36.5576 1071.04 36.1099 1071.04 35.5576V34.3379C1073.18 34.5587 1075.27 35.4861 1076.91 37.126C1078.55 38.767 1079.48 40.8538 1079.7 43H1078.41C1077.85 43 1077.41 43.4478 1077.41 44C1077.41 44.5522 1077.85 45 1078.41 45H1079.7C1079.48 47.1462 1078.55 49.233 1076.91 50.874Z" fill="white"/>
<path d="M1075.21 40.9492L1072.66 40.5625L1071.51 38.1309C1071.23 37.5352 1070.65 37.165 1070 37.165C1069.35 37.165 1068.77 37.5352 1068.49 38.1304L1067.34 40.5625L1064.79 40.9492C1064.17 41.0439 1063.66 41.4795 1063.46 42.0864C1063.25 42.7061 1063.4 43.3774 1063.86 43.8398L1065.73 45.7456L1065.28 48.4473C1065.18 49.104 1065.44 49.748 1065.98 50.1279C1066.27 50.3306 1066.6 50.4336 1066.93 50.4336C1067.21 50.4336 1067.48 50.3652 1067.73 50.2275L1070 48.9805L1072.27 50.2275C1072.83 50.5352 1073.5 50.4966 1074.02 50.1284C1074.56 49.749 1074.82 49.105 1074.72 48.4468L1074.27 45.7451L1076.14 43.8403C1076.6 43.3784 1076.75 42.7065 1076.54 42.0869C1076.34 41.48 1075.83 41.0439 1075.21 40.9492ZM1072.28 45.9336L1072.64 48.1489L1070.8 47.1353C1070.3 46.8618 1069.7 46.8618 1069.2 47.1353L1067.36 48.1489L1067.72 45.9336C1067.81 45.3921 1067.64 44.8364 1067.26 44.4478L1065.68 42.8384L1067.82 42.5127C1068.37 42.4287 1068.84 42.0747 1069.08 41.5664L1070 39.6201L1070.92 41.5684C1071.16 42.0757 1071.63 42.4287 1072.18 42.5132L1074.32 42.8384L1072.74 44.4487C1072.36 44.8364 1072.19 45.3911 1072.28 45.9336Z" fill="white"/>
<path d="M1122.94 35.248H1133.57V37.792H1122.94V35.248ZM1128.29 38.776C1131.12 38.776 1133.16 40.96 1133.16 44.08C1133.16 47.176 1131.12 49.36 1128.29 49.36C1125.48 49.36 1123.42 47.176 1123.42 44.08C1123.42 40.96 1125.48 38.776 1128.29 38.776ZM1128.29 41.44C1127.09 41.44 1126.25 42.4 1126.25 44.08C1126.25 45.76 1127.09 46.696 1128.29 46.696C1129.49 46.696 1130.35 45.76 1130.35 44.08C1130.35 42.4 1129.49 41.44 1128.29 41.44ZM1139.02 31.912H1142.06V54.136H1139.02V31.912ZM1136.35 40.936H1140.02V43.504H1136.35V40.936ZM1134.36 32.32H1137.34V53.2H1134.36V32.32ZM1126.73 32.512H1129.87V36.856H1126.73V32.512ZM1150.56 43.024H1153.77V47.704H1150.56V43.024ZM1152.19 33.208C1155.69 33.208 1158.31 35.488 1158.31 38.68C1158.31 41.872 1155.69 44.152 1152.19 44.152C1148.71 44.152 1146.05 41.872 1146.05 38.68C1146.05 35.488 1148.71 33.208 1152.19 33.208ZM1152.19 35.944C1150.49 35.944 1149.19 36.928 1149.19 38.68C1149.19 40.408 1150.49 41.44 1152.19 41.44C1153.89 41.44 1155.19 40.408 1155.19 38.68C1155.19 36.928 1153.89 35.944 1152.19 35.944ZM1160.4 31.888H1163.59V54.184H1160.4V31.888ZM1145.52 49.72L1145.13 47.152C1149.05 47.152 1154.49 47.104 1159.17 46.408L1159.41 48.712C1154.59 49.672 1149.36 49.72 1145.52 49.72ZM1179.95 39.376H1183.63V41.968H1179.95V39.376ZM1175.2 33.832H1177.65V37.576C1177.65 42.616 1176.26 47.536 1172.71 49.72L1170.79 47.32C1174.05 45.304 1175.2 41.344 1175.2 37.576V33.832ZM1175.9 33.832H1178.3V37.432C1178.3 41.056 1179.23 44.752 1182.26 46.72L1180.53 49.216C1177 47.032 1175.9 42.232 1175.9 37.432V33.832ZM1187.25 31.912H1190.3V54.136H1187.25V31.912ZM1182.74 32.248H1185.71V53.128H1182.74V32.248ZM1199.54 32.56C1202.92 32.56 1205.46 34.672 1205.46 37.648C1205.46 40.6 1202.92 42.712 1199.54 42.712C1196.15 42.712 1193.61 40.6 1193.61 37.648C1193.61 34.672 1196.15 32.56 1199.54 32.56ZM1199.54 35.152C1197.9 35.152 1196.68 36.064 1196.68 37.648C1196.68 39.232 1197.9 40.144 1199.54 40.144C1201.17 40.144 1202.37 39.232 1202.37 37.648C1202.37 36.064 1201.17 35.152 1199.54 35.152ZM1208.54 31.912H1211.75V43.024H1208.54V31.912ZM1196.92 43.936H1211.75V50.032H1200.09V52.72H1196.97V47.728H1208.58V46.408H1196.92V43.936ZM1196.97 51.424H1212.3V53.896H1196.97V51.424ZM1215.37 48.88H1235.49V51.472H1215.37V48.88ZM1223.73 34.984H1226.41V36.256C1226.41 40.912 1223.05 44.656 1217.39 45.688L1216.14 43.144C1221.09 42.376 1223.73 39.328 1223.73 36.256V34.984ZM1224.37 34.984H1227.06V36.256C1227.06 39.328 1229.7 42.28 1234.77 43.024L1233.54 45.568C1227.78 44.56 1224.37 40.912 1224.37 36.256V34.984ZM1217.03 33.76H1233.76V36.304H1217.03V33.76Z" fill="white"/>
<rect x="1368" width="332" height="88" rx="12" fill="white" fill-opacity="0.2"/>
<rect x="1384" y="16" width="56" height="56" rx="8" fill="white" fill-opacity="0.4"/>
<path d="M1417.17 47.9854C1415.93 47.5898 1414.58 48.2119 1414.08 49.3965C1414.05 49.4648 1414.03 49.5342 1414 49.6035C1412.43 48.9277 1411.01 47.9854 1409.76 46.7949C1409.75 46.7939 1409.75 46.792 1409.75 46.791C1409.57 46.6152 1409.38 46.4346 1409.21 46.248C1409.21 46.2461 1409.21 46.2451 1409.21 46.2432C1408.01 44.9902 1407.07 43.5654 1406.4 41.999C1406.47 41.9727 1406.54 41.9453 1406.6 41.916C1407.79 41.418 1408.41 40.0635 1408.01 38.8301C1405.18 30 1405.11 30 1404.2 30C1400.78 30 1398 32.7812 1398 36.1992C1398 48.2197 1407.78 58 1419.8 58C1423.22 58 1426 55.2188 1426 51.8008C1426 50.8906 1426 50.8164 1417.17 47.9854ZM1419.8 56C1408.88 56 1400 47.1172 1400 36.1992C1400 34.085 1401.57 32.3301 1403.61 32.042C1403.97 32.9688 1404.77 35.2539 1406.11 39.4404C1406.19 39.6943 1406.07 39.9717 1405.83 40.0723C1405.53 40.1973 1405.22 40.2881 1404.9 40.3408C1404.61 40.3887 1404.35 40.5625 1404.2 40.8164C1404.05 41.0693 1404.02 41.377 1404.12 41.6553C1404.89 43.8906 1406.12 45.8975 1407.75 47.6201C1407.96 47.835 1408.17 48.043 1408.38 48.2451C1410.1 49.8818 1412.11 51.1055 1414.34 51.8818C1414.62 51.9795 1414.93 51.9473 1415.18 51.7969C1415.44 51.6465 1415.61 51.3916 1415.66 51.1006C1415.71 50.7822 1415.8 50.4697 1415.93 50.1709C1416.03 49.9316 1416.3 49.8105 1416.56 49.8896C1420.75 51.2324 1423.03 52.0273 1423.96 52.3936C1423.67 54.4287 1421.92 56 1419.8 56Z" fill="white"/>
<path d="M1413.74 35C1417.74 35 1421 38.2588 1421 42.2646C1421 42.8174 1421.45 43.2646 1422 43.2646C1422.55 43.2646 1423 42.8174 1423 42.2646C1423 37.1562 1418.84 33 1413.74 33C1413.18 33 1412.74 33.4473 1412.74 34C1412.74 34.5527 1413.18 35 1413.74 35Z" fill="white"/>
<path d="M1412 39.4902C1414.49 39.4902 1416.51 41.5137 1416.51 44C1416.51 44.5527 1416.96 45 1417.51 45C1418.06 45 1418.51 44.5527 1418.51 44C1418.51 40.4102 1415.59 37.4902 1412 37.4902C1411.45 37.4902 1411 37.9375 1411 38.4902C1411 39.043 1411.45 39.4902 1412 39.4902Z" fill="white"/>
<path d="M1464.94 35.248H1475.57V37.792H1464.94V35.248ZM1470.29 38.776C1473.12 38.776 1475.16 40.96 1475.16 44.08C1475.16 47.176 1473.12 49.36 1470.29 49.36C1467.48 49.36 1465.42 47.176 1465.42 44.08C1465.42 40.96 1467.48 38.776 1470.29 38.776ZM1470.29 41.44C1469.09 41.44 1468.25 42.4 1468.25 44.08C1468.25 45.76 1469.09 46.696 1470.29 46.696C1471.49 46.696 1472.35 45.76 1472.35 44.08C1472.35 42.4 1471.49 41.44 1470.29 41.44ZM1481.02 31.912H1484.06V54.136H1481.02V31.912ZM1478.35 40.936H1482.02V43.504H1478.35V40.936ZM1476.36 32.32H1479.34V53.2H1476.36V32.32ZM1468.73 32.512H1471.87V36.856H1468.73V32.512ZM1492.56 43.024H1495.77V47.704H1492.56V43.024ZM1494.19 33.208C1497.69 33.208 1500.31 35.488 1500.31 38.68C1500.31 41.872 1497.69 44.152 1494.19 44.152C1490.71 44.152 1488.05 41.872 1488.05 38.68C1488.05 35.488 1490.71 33.208 1494.19 33.208ZM1494.19 35.944C1492.49 35.944 1491.19 36.928 1491.19 38.68C1491.19 40.408 1492.49 41.44 1494.19 41.44C1495.89 41.44 1497.19 40.408 1497.19 38.68C1497.19 36.928 1495.89 35.944 1494.19 35.944ZM1502.4 31.888H1505.59V54.184H1502.4V31.888ZM1487.52 49.72L1487.13 47.152C1491.05 47.152 1496.49 47.104 1501.17 46.408L1501.41 48.712C1496.59 49.672 1491.36 49.72 1487.52 49.72ZM1512.95 43.48C1512.95 41.8 1513.29 40.304 1513.96 38.992C1514.65 37.68 1515.63 36.664 1516.89 35.944C1518.15 35.208 1519.64 34.84 1521.35 34.84C1522.83 34.84 1524.14 35.12 1525.29 35.68C1526.46 36.224 1527.4 37 1528.12 38.008C1528.86 39.016 1529.35 40.192 1529.59 41.536H1523.97C1523.71 40.976 1523.35 40.544 1522.87 40.24C1522.4 39.92 1521.87 39.76 1521.26 39.76C1520.36 39.76 1519.65 40.096 1519.12 40.768C1518.61 41.44 1518.35 42.344 1518.35 43.48C1518.35 44.616 1518.61 45.52 1519.12 46.192C1519.65 46.864 1520.36 47.2 1521.26 47.2C1521.87 47.2 1522.4 47.048 1522.87 46.744C1523.35 46.424 1523.71 45.984 1523.97 45.424H1529.59C1529.35 46.768 1528.86 47.944 1528.12 48.952C1527.4 49.96 1526.46 50.744 1525.29 51.304C1524.14 51.848 1522.83 52.12 1521.35 52.12C1519.64 52.12 1518.15 51.76 1516.89 51.04C1515.63 50.304 1514.65 49.28 1513.96 47.968C1513.29 46.656 1512.95 45.16 1512.95 43.48ZM1538.15 52.168C1536.12 52.168 1534.44 51.696 1533.11 50.752C1531.8 49.792 1531.09 48.392 1530.98 46.552H1536.64C1536.72 47.528 1537.15 48.016 1537.94 48.016C1538.22 48.016 1538.46 47.952 1538.66 47.824C1538.86 47.68 1538.97 47.464 1538.97 47.176C1538.97 46.776 1538.75 46.456 1538.32 46.216C1537.89 45.96 1537.22 45.672 1536.3 45.352C1535.22 44.968 1534.31 44.592 1533.59 44.224C1532.89 43.856 1532.28 43.32 1531.77 42.616C1531.26 41.912 1531.01 41.008 1531.02 39.904C1531.02 38.8 1531.3 37.864 1531.86 37.096C1532.44 36.312 1533.22 35.72 1534.19 35.32C1535.18 34.92 1536.3 34.72 1537.53 34.72C1539.61 34.72 1541.26 35.2 1542.47 36.16C1543.7 37.12 1544.35 38.472 1544.42 40.216H1538.68C1538.66 39.736 1538.54 39.392 1538.32 39.184C1538.1 38.976 1537.82 38.872 1537.5 38.872C1537.28 38.872 1537.1 38.952 1536.95 39.112C1536.81 39.256 1536.74 39.464 1536.74 39.736C1536.74 40.12 1536.94 40.44 1537.36 40.696C1537.79 40.936 1538.47 41.232 1539.4 41.584C1540.47 41.984 1541.35 42.368 1542.04 42.736C1542.74 43.104 1543.35 43.616 1543.86 44.272C1544.38 44.928 1544.63 45.752 1544.63 46.744C1544.63 47.784 1544.38 48.72 1543.86 49.552C1543.35 50.368 1542.61 51.008 1541.63 51.472C1540.66 51.936 1539.5 52.168 1538.15 52.168Z" fill="white"/>
<defs>
<clipPath id="clip0_2_8363">
<rect width="32" height="32" fill="white" transform="translate(712 28)"/>
</clipPath>
</defs>
</svg>
