<svg width="12" height="20" viewBox="0 0 12 20" fill="none" xmlns="http://www.w3.org/2000/svg">
<path d="M9.94409 6.60332C9.35921 6.60332 8.9024 6.13165 8.59052 5.63687C8.54547 5.56539 8.49595 5.49643 8.44197 5.42998C8.18123 5.10063 7.82785 4.85361 7.38185 4.68893C6.93585 4.52426 6.42809 4.44192 5.85858 4.44192C5.26162 4.44192 4.73671 4.53455 4.28385 4.71981C3.83098 4.90507 3.48104 5.16581 3.23403 5.50203C2.98701 5.83139 2.8635 6.20877 2.8635 6.63419C2.8635 7.26546 3.12081 7.75263 3.63543 8.09571C4.15691 8.43193 4.80533 8.69267 5.58069 8.87793L7.01133 9.25875C8.25327 9.56752 9.27908 10.041 10.0887 10.6791C10.9053 11.3172 11.3135 12.247 11.3135 13.4683C11.3135 14.3123 11.094 15.0671 10.6548 15.7326C10.2225 16.3914 9.58785 16.906 8.75074 17.2765C7.92049 17.647 6.93242 17.8323 5.78653 17.8323C4.67496 17.8323 3.71091 17.6539 2.89438 17.2971C2.08471 16.9403 1.44658 16.436 0.979997 15.7841C0.737201 15.4398 0.550864 15.0611 0.420986 14.648C0.223969 14.0212 0.762912 13.458 1.41988 13.458C2.01427 13.458 2.47418 13.9427 2.76808 14.4593C2.83125 14.5704 2.90423 14.6757 2.98701 14.7755C3.28892 15.1323 3.68003 15.3999 4.16034 15.5783C4.64751 15.7567 5.18615 15.8424 5.77624 15.8356C6.40751 15.8356 6.97359 15.7361 7.47448 15.5371C7.97538 15.3381 8.36649 15.0568 8.64781 14.6931C8.92914 14.3295 9.0698 13.9075 9.0698 13.4272C9.0698 13.0155 8.95315 12.6655 8.71986 12.3773C8.48657 12.0891 8.1675 11.8559 7.76267 11.6775C7.35784 11.4991 6.85694 11.3309 6.25998 11.1731L4.4897 10.71C3.24089 10.3669 2.28027 9.87629 1.60783 9.23816C0.942258 8.59317 0.612902 7.76635 0.619764 6.7577C0.619764 5.91373 0.846196 5.16581 1.29906 4.51396C1.75879 3.86211 2.39005 3.36122 3.19286 3.01128C4.00252 2.65448 4.90825 2.47607 5.91004 2.47607C6.90497 2.47607 7.79355 2.65448 8.57577 3.01128C9.36485 3.36122 9.97896 3.85182 10.4181 4.48309C10.6365 4.78891 10.8031 5.11449 10.9179 5.45983C11.1195 6.06655 10.5834 6.60332 9.94409 6.60332Z" fill="#00C696"/>
<path d="M5.95123 1.5L5.95123 3.3291" stroke="#00C696" stroke-width="2" stroke-linecap="round"/>
<path d="M5.95123 16.918L5.95123 18.7471" stroke="#00C696" stroke-width="2" stroke-linecap="round"/>
</svg>
