<svg width="268" height="24" viewBox="0 0 268 24" fill="none" xmlns="http://www.w3.org/2000/svg">
<path d="M3.51325 8.704H5.11325V9.088C5.11325 12.16 4.21725 15.248 1.84925 16.608L0.64925 15.008C2.76125 13.776 3.51325 11.36 3.51325 9.088V8.704ZM3.92925 8.704H5.52925V9.088C5.52925 11.312 6.29725 13.568 8.39325 14.688L7.24125 16.256C4.84125 15.008 3.92925 12.112 3.92925 9.088V8.704ZM1.14525 7.104H7.88125V8.816H1.14525V7.104ZM3.51325 5.104H5.52925V8.48H3.51325V5.104ZM11.7373 4.608H13.7533V19.424H11.7373V4.608ZM9.96125 10.288H12.4253V12.016H9.96125V10.288ZM8.55325 4.832H10.5373V18.752H8.55325V4.832ZM18.648 9.568H20.776V12.288H18.648V9.568ZM23.864 9.568H25.976V12.288H23.864V9.568ZM15.64 11.632H29.032V13.312H15.64V11.632ZM22.312 14.064C25.512 14.064 27.448 15.024 27.448 16.736C27.448 18.464 25.512 19.424 22.312 19.424C19.096 19.424 17.16 18.464 17.16 16.736C17.16 15.024 19.096 14.064 22.312 14.064ZM22.312 15.664C20.328 15.664 19.32 16 19.32 16.736C19.32 17.488 20.328 17.824 22.312 17.824C24.296 17.824 25.304 17.488 25.304 16.736C25.304 16 24.296 15.664 22.312 15.664ZM22.344 4.816C25.608 4.816 27.704 5.904 27.704 7.68C27.704 9.44 25.608 10.496 22.344 10.496C19.064 10.496 16.984 9.44 16.984 7.68C16.984 5.904 19.064 4.816 22.344 4.816ZM22.344 6.448C20.312 6.448 19.176 6.848 19.176 7.68C19.176 8.496 20.312 8.896 22.344 8.896C24.376 8.896 25.512 8.496 25.512 7.68C25.512 6.848 24.376 6.448 22.344 6.448Z" fill="white"/>
<g clip-path="url(#clip0_7809_31)">
<path d="M43.9063 15.3334C43.7749 15.3336 43.6485 15.2835 43.553 15.1934L38.8063 10.44C38.7572 10.3942 38.7178 10.339 38.6904 10.2777C38.6631 10.2164 38.6484 10.1502 38.6472 10.083C38.646 10.0159 38.6584 9.94922 38.6835 9.88696C38.7087 9.8247 38.7461 9.76814 38.7936 9.72067C38.8411 9.67319 38.8976 9.63576 38.9599 9.61061C39.0222 9.58546 39.0888 9.57311 39.156 9.5743C39.2231 9.57548 39.2893 9.59018 39.3507 9.6175C39.412 9.64483 39.4672 9.68423 39.513 9.73336L43.913 14.1334L48.493 9.72669C48.5876 9.63466 48.7143 9.58316 48.8463 9.58316C48.9783 9.58316 49.105 9.63466 49.1996 9.72669C49.2933 9.82044 49.3459 9.94752 49.3459 10.08C49.3459 10.2125 49.2933 10.3396 49.1996 10.4334L44.2663 15.1867C44.2198 15.2349 44.1638 15.2728 44.1018 15.2981C44.0398 15.3234 43.9732 15.3354 43.9063 15.3334Z" fill="white"/>
</g>
<path d="M112.952 6.832H120.04V8.528H112.952V6.832ZM116.52 9.184C118.408 9.184 119.768 10.64 119.768 12.72C119.768 14.784 118.408 16.24 116.52 16.24C114.648 16.24 113.272 14.784 113.272 12.72C113.272 10.64 114.648 9.184 116.52 9.184ZM116.52 10.96C115.72 10.96 115.16 11.6 115.16 12.72C115.16 13.84 115.72 14.464 116.52 14.464C117.32 14.464 117.896 13.84 117.896 12.72C117.896 11.6 117.32 10.96 116.52 10.96ZM123.672 4.608H125.704V19.424H123.672V4.608ZM121.896 10.624H124.344V12.336H121.896V10.624ZM120.568 4.88H122.552V18.8H120.568V4.88ZM115.48 5.008H117.576V7.904H115.48V5.008ZM131.367 12.016H133.511V15.136H131.367V12.016ZM132.455 5.472C134.791 5.472 136.535 6.992 136.535 9.12C136.535 11.248 134.791 12.768 132.455 12.768C130.135 12.768 128.359 11.248 128.359 9.12C128.359 6.992 130.135 5.472 132.455 5.472ZM132.455 7.296C131.319 7.296 130.455 7.952 130.455 9.12C130.455 10.272 131.319 10.96 132.455 10.96C133.591 10.96 134.455 10.272 134.455 9.12C134.455 7.952 133.591 7.296 132.455 7.296ZM137.927 4.592H140.055V19.456H137.927V4.592ZM128.007 16.48L127.751 14.768C130.359 14.768 133.991 14.736 137.111 14.272L137.271 15.808C134.055 16.448 130.567 16.48 128.007 16.48ZM155.78 4.608H157.812V19.424H155.78V4.608ZM153.908 10.192H156.356V11.888H153.908V10.192ZM149.492 6.416H151.524C151.524 10.592 150.308 13.968 146.164 16.384L144.932 14.912C148.308 12.912 149.492 10.416 149.492 6.864V6.416ZM145.684 6.416H150.116V8.128H145.684V6.416ZM152.5 4.992H154.484V18.784H152.5V4.992ZM160.275 5.264H162.387V7.008H165.283V5.264H167.395V11.744H160.275V5.264ZM162.387 8.608V10.08H165.283V8.608H162.387ZM169.379 4.608H171.507V12.128H169.379V4.608ZM170.643 7.456H173.459V9.184H170.643V7.456ZM161.715 12.704H171.507V16.736H163.859V18.496H161.747V15.216H169.411V14.336H161.715V12.704ZM161.747 17.68H171.939V19.328H161.747V17.68ZM177.89 6.944H179.57V8.608C179.57 11.952 178.162 15.36 175.442 16.64L174.242 14.96C176.69 13.808 177.89 11.04 177.89 8.608V6.944ZM178.338 6.944H180.018V8.608C180.018 10.848 181.17 13.472 183.602 14.592L182.434 16.272C179.714 15.008 178.338 11.76 178.338 8.608V6.944ZM174.818 6.032H182.946V7.776H174.818V6.032ZM184.034 4.608H186.178V19.424H184.034V4.608ZM185.698 10.256H188.322V12.016H185.698V10.256ZM201.631 4.608H203.759V13.312H201.631V4.608ZM203.007 8.096H205.615V9.84H203.007V8.096ZM193.791 13.856H203.759V17.216H195.919V18.4H193.807V15.904H201.663V15.264H193.791V13.856ZM193.807 17.92H204.271V19.328H193.807V17.92ZM195.359 10.528H197.487V12.64H195.359V10.528ZM192.047 13.184L191.823 11.744C194.447 11.744 197.983 11.728 200.975 11.328L201.135 12.624C198.015 13.168 194.607 13.184 192.047 13.184ZM192.207 5.536H200.607V6.944H192.207V5.536ZM196.415 7.216C198.607 7.216 200.015 7.936 200.015 9.152C200.015 10.384 198.607 11.104 196.415 11.104C194.207 11.104 192.799 10.384 192.799 9.152C192.799 7.936 194.207 7.216 196.415 7.216ZM196.415 8.528C195.407 8.528 194.815 8.72 194.815 9.152C194.815 9.584 195.407 9.792 196.415 9.792C197.423 9.792 197.999 9.584 197.999 9.152C197.999 8.72 197.423 8.528 196.415 8.528ZM195.359 4.48H197.487V6.32H195.359V4.48ZM209.726 9.568H211.854V12.288H209.726V9.568ZM214.942 9.568H217.054V12.288H214.942V9.568ZM206.718 11.632H220.11V13.312H206.718V11.632ZM213.39 14.064C216.59 14.064 218.526 15.024 218.526 16.736C218.526 18.464 216.59 19.424 213.39 19.424C210.174 19.424 208.238 18.464 208.238 16.736C208.238 15.024 210.174 14.064 213.39 14.064ZM213.39 15.664C211.406 15.664 210.398 16 210.398 16.736C210.398 17.488 211.406 17.824 213.39 17.824C215.374 17.824 216.382 17.488 216.382 16.736C216.382 16 215.374 15.664 213.39 15.664ZM213.422 4.816C216.686 4.816 218.782 5.904 218.782 7.68C218.782 9.44 216.686 10.496 213.422 10.496C210.142 10.496 208.062 9.44 208.062 7.68C208.062 5.904 210.142 4.816 213.422 4.816ZM213.422 6.448C211.39 6.448 210.254 6.848 210.254 7.68C210.254 8.496 211.39 8.896 213.422 8.896C215.454 8.896 216.59 8.496 216.59 7.68C216.59 6.848 215.454 6.448 213.422 6.448ZM231.628 9.232H235.532V10.944H231.628V9.232ZM227.596 5.744H229.324V7.888C229.324 11.616 228.06 15.056 225.276 16.448L223.948 14.736C226.476 13.568 227.596 10.704 227.596 7.888V5.744ZM228.044 5.744H229.74V7.888C229.74 10.704 230.812 13.408 233.26 14.496L231.996 16.192C229.212 14.848 228.044 11.584 228.044 7.888V5.744ZM234.476 4.592H236.588V19.456H234.476V4.592ZM249.034 4.592H251.178V19.456H249.034V4.592ZM239.61 5.776H241.722V9.376H244.778V5.776H246.89V16H239.61V5.776ZM241.722 11.024V14.288H244.778V11.024H241.722ZM259.097 5.456H260.953V6.528C260.953 9.744 258.665 12.592 254.825 13.344L253.913 11.584C257.257 11.008 259.097 8.656 259.097 6.528V5.456ZM259.529 5.456H261.369V6.528C261.369 8.704 263.193 11.008 266.553 11.584L265.641 13.344C261.801 12.592 259.529 9.792 259.529 6.528V5.456ZM253.609 15.888H267.017V17.616H253.609V15.888Z" fill="white"/>
<defs>
<clipPath id="clip0_7809_31">
<rect width="16" height="16" fill="white" transform="translate(36 4)"/>
</clipPath>
</defs>
</svg>
