<svg width="578" height="108" viewBox="0 0 578 108" fill="none" xmlns="http://www.w3.org/2000/svg">
<path d="M11.296 24.968H17.728V34.136H11.296V24.968ZM11.248 9.128H16.336V10.136C16.336 17.576 12.352 24.056 3.904 26.312L1.024 21.416C8.128 19.544 11.248 14.888 11.248 10.136V9.128ZM12.592 9.128H17.728V10.136C17.728 14.696 20.944 19.208 28 21.032L25.168 25.928C16.72 23.768 12.592 17.384 12.592 10.136V9.128ZM2.368 6.056H26.704V11.096H2.368V6.056ZM11.296 1.208H17.728V8.264H11.296V1.208ZM30.64 0.775997H37.024V45.368H30.64V0.775997ZM0.88 37.112L0.112 31.928C7.888 31.928 18.832 31.832 28.192 30.44L28.672 35.096C19.024 36.968 8.56 37.064 0.88 37.112ZM48.2043 4.568H76.3803V9.704H48.2043V4.568ZM44.1243 34.76H84.3003V39.944H44.1243V34.76ZM58.3323 19.496H64.7163V37.304H58.3323V19.496ZM74.0763 4.568H80.4603V8.84C80.4603 14.408 80.4603 20.648 78.6843 30.152L72.3003 29.432C74.0763 20.6 74.0763 14.168 74.0763 8.84V4.568ZM102.537 3.752C109.545 3.752 114.777 8.312 114.777 14.696C114.777 21.128 109.545 25.688 102.537 25.688C95.5765 25.688 90.2485 21.128 90.2485 14.696C90.2485 8.312 95.5765 3.752 102.537 3.752ZM102.537 9.224C99.1285 9.224 96.5365 11.24 96.5365 14.696C96.5365 18.2 99.1285 20.216 102.537 20.216C105.945 20.216 108.537 18.2 108.537 14.696C108.537 11.24 105.945 9.224 102.537 9.224ZM118.953 0.775997H125.337V45.368H118.953V0.775997ZM89.1925 36.344L88.4245 31.208C96.2485 31.208 107.145 31.112 116.505 29.72L116.985 34.328C107.337 36.248 96.8725 36.344 89.1925 36.344ZM171.073 0.823999H177.505V23.288H171.073V0.823999ZM147.841 25.256H177.505V37.304H154.177V41.768H147.937V32.696H171.169V30.104H147.841V25.256ZM147.937 40.04H178.609V44.984H147.937V40.04ZM150.961 1.832H156.241V5.192C156.241 13.4 152.113 20.84 143.425 23.48L140.353 18.44C147.793 16.184 150.961 10.616 150.961 5.192V1.832ZM152.257 1.832H157.489V5.192C157.489 10.472 160.609 15.656 167.857 17.72L164.785 22.664C156.241 20.168 152.257 13.208 152.257 5.192V1.832ZM186.381 21.992H189.789C198.045 21.992 202.365 21.848 207.405 20.936L208.029 25.976C202.845 26.936 198.285 27.08 189.789 27.08H186.381V21.992ZM186.333 3.368H205.869V17.384H192.717V25.352H186.381V12.632H199.533V8.408H186.333V3.368ZM215.517 0.871999H221.901V28.232H215.517V0.871999ZM208.413 6.968H216.669V12.056H208.413V6.968ZM208.413 16.424H216.669V21.512H208.413V16.424ZM191.469 30.248H221.901V45.32H215.517V35.336H191.469V30.248ZM10.96 85.048H17.392V94.408H10.96V85.048ZM14.224 65.416C21.232 65.416 26.464 69.976 26.464 76.36C26.464 82.744 21.232 87.304 14.224 87.304C7.264 87.304 1.936 82.744 1.936 76.36C1.936 69.976 7.264 65.416 14.224 65.416ZM14.224 70.888C10.816 70.888 8.224 72.856 8.224 76.36C8.224 79.816 10.816 81.88 14.224 81.88C17.632 81.88 20.224 79.816 20.224 76.36C20.224 72.856 17.632 70.888 14.224 70.888ZM30.64 62.776H37.024V107.368H30.64V62.776ZM0.88 98.44L0.112 93.304C7.936 93.304 18.832 93.208 28.192 91.816L28.672 96.424C19.024 98.344 8.56 98.44 0.88 98.44ZM49.0203 64.696H77.1963V69.784H49.0203V64.696ZM44.1243 80.056H84.3483V85.144H44.1243V80.056ZM60.9723 83.656H67.3563V92.968H60.9723V83.656ZM73.3563 64.696H79.6443V68.248C79.6443 72.088 79.6443 76.552 78.2523 82.408L71.9643 81.784C73.3563 76.072 73.3563 71.992 73.3563 68.248V64.696ZM48.1562 91.384H79.6923V107.272H73.3083V96.424H48.1562V91.384ZM118.761 62.872H125.193V94.792H118.761V62.872ZM95.5765 101.416H126.297V106.504H95.5765V101.416ZM95.5765 91.576H101.961V103.48H95.5765V91.576ZM101.001 65.656C107.817 65.656 113.049 70.36 113.049 76.936C113.049 83.464 107.817 88.216 101.001 88.216C94.1845 88.216 88.9045 83.464 88.9045 76.936C88.9045 70.36 94.1845 65.656 101.001 65.656ZM101.001 71.176C97.6885 71.176 95.1445 73.288 95.1445 76.936C95.1445 80.536 97.6885 82.648 101.001 82.648C104.265 82.648 106.809 80.536 106.809 76.936C106.809 73.288 104.265 71.176 101.001 71.176ZM171.073 62.872H177.505V94.792H171.073V62.872ZM147.889 101.416H178.609V106.504H147.889V101.416ZM147.889 91.576H154.273V103.48H147.889V91.576ZM153.313 65.656C160.129 65.656 165.361 70.36 165.361 76.936C165.361 83.464 160.129 88.216 153.313 88.216C146.497 88.216 141.217 83.464 141.217 76.936C141.217 70.36 146.497 65.656 153.313 65.656ZM153.313 71.176C150.001 71.176 147.457 73.288 147.457 76.936C147.457 80.536 150.001 82.648 153.313 82.648C156.577 82.648 159.121 80.536 159.121 76.936C159.121 73.288 156.577 71.176 153.313 71.176ZM217.149 62.824H223.197V107.272H217.149V62.824ZM211.821 79.864H219.213V85.048H211.821V79.864ZM207.597 63.496H213.549V105.256H207.597V63.496ZM192.621 69.736H197.469V73.672C197.469 84.664 195.069 94.36 187.677 98.824L183.837 93.928C190.509 90.088 192.621 82.216 192.621 73.672V69.736ZM193.917 69.736H198.813V73.672C198.813 81.496 201.069 88.888 207.693 92.344L204.045 97.192C196.557 93.16 193.917 83.992 193.917 73.672V69.736ZM185.277 67.336H205.485V72.472H185.277V67.336Z" fill="white"/>
<path d="M248.97 1.448C259.098 1.448 265.05 4.136 265.05 9.032C265.05 13.928 259.098 16.616 248.97 16.616C238.794 16.616 232.89 13.928 232.89 9.032C232.89 4.136 238.794 1.448 248.97 1.448ZM248.97 6.104C242.538 6.104 239.514 7.064 239.514 9.032C239.514 11.096 242.538 11.96 248.97 11.96C255.402 11.96 258.426 11.096 258.426 9.032C258.426 7.064 255.402 6.104 248.97 6.104ZM228.858 18.68H269.034V23.72H228.858V18.68ZM233.466 26.216H264.186V37.64H239.802V41.576H233.514V33.224H257.898V30.968H233.466V26.216ZM233.514 40.184H265.338V44.984H233.514V40.184ZM309.586 0.775997H316.018V45.224H309.586V0.775997ZM314.338 17.768H322.162V23H314.338V17.768ZM297.922 5.384H304.162C304.162 18.728 299.074 30.152 284.29 37.592L280.738 32.744C292.402 26.696 297.922 18.536 297.922 6.488V5.384ZM283.186 5.384H301.186V10.52H283.186V5.384ZM336.126 5.768H341.406V9.512C341.406 17.912 337.326 25.496 328.782 28.28L325.518 23.288C332.91 20.888 336.126 15.128 336.126 9.512V5.768ZM337.422 5.768H342.654V9.512C342.654 14.792 345.822 20.216 353.07 22.52L349.806 27.464C341.454 24.824 337.422 17.576 337.422 9.512V5.768ZM327.198 3.992H351.39V9.032H327.198V3.992ZM355.854 0.871999H362.286V32.936H355.854V0.871999ZM332.67 39.416H363.39V44.504H332.67V39.416ZM332.67 30.056H339.054V41.96H332.67V30.056ZM228.858 82.744H269.13V87.4H228.858V82.744ZM233.37 89.608H264.33V100.168H239.802V103.96H233.466V96.136H258.042V93.928H233.37V89.608ZM233.466 102.616H265.578V106.936H233.466V102.616ZM233.802 63.592H264.234V74.056H240.186V77.704H233.85V70.072H257.946V67.864H233.802V63.592ZM233.85 76.36H265.05V80.68H233.85V76.36ZM291.154 70.216H296.29V71.848C296.29 79.384 292.258 86.008 283.762 88.312L280.834 83.32C288.034 81.4 291.154 76.648 291.154 71.848V70.216ZM292.354 70.216H297.538V71.848C297.538 76.264 300.61 80.776 307.762 82.6L304.93 87.496C296.338 85.336 292.354 79 292.354 71.848V70.216ZM282.418 67.096H306.274V72.088H282.418V67.096ZM291.154 62.68H297.538V69.4H291.154V62.68ZM309.778 62.824H316.162V88.12H309.778V62.824ZM314.386 72.76H322.066V77.992H314.386V72.76ZM298.45 92.152H303.826V93.208C303.826 100.12 298.066 105.736 287.362 107.128L285.058 102.28C294.322 101.176 298.45 97.048 298.45 93.208V92.152ZM299.842 92.152H305.266V93.208C305.266 96.904 309.49 101.176 318.61 102.376L316.354 107.224C305.602 105.832 299.842 99.928 299.842 93.208V92.152ZM286.93 90.04H316.738V95.08H286.93V90.04ZM329.454 66.568H357.63V71.704H329.454V66.568ZM325.374 96.76H365.55V101.944H325.374V96.76ZM339.582 81.496H345.966V99.304H339.582V81.496ZM355.326 66.568H361.71V70.84C361.71 76.408 361.71 82.648 359.934 92.152L353.55 91.432C355.326 82.6 355.326 76.168 355.326 70.84V66.568ZM394.775 74.536H403.799V79.624H394.775V74.536ZM394.535 85.624H403.607V90.712H394.535V85.624ZM409.847 62.824H415.943V107.272H409.847V62.824ZM400.679 63.784H406.631V105.304H400.679V63.784ZM390.647 68.056H396.791C396.791 80.68 392.999 90.76 380.615 98.056L377.015 93.592C387.047 87.496 390.647 80.104 390.647 69.352V68.056ZM379.559 68.056H392.807V73.144H379.559V68.056ZM452.323 62.872H458.755V95.272H452.323V62.872ZM429.139 101.416H459.859V106.504H429.139V101.416ZM429.139 92.152H435.523V104.056H429.139V92.152ZM432.211 65.272H437.491V69.592C437.491 78.28 433.507 86.296 424.867 89.32L421.651 84.232C429.091 81.688 432.211 75.496 432.211 69.592V65.272ZM433.507 65.272H438.739V69.592C438.739 75.4 441.763 81.112 449.059 83.464L445.795 88.552C437.395 85.72 433.507 78.184 433.507 69.592V65.272ZM494.367 62.776H500.799V107.224H494.367V62.776ZM499.119 79.768H506.943V85H499.119V79.768ZM482.703 67.384H488.943C488.943 80.728 483.855 92.152 469.071 99.592L465.519 94.744C477.183 88.696 482.703 80.536 482.703 68.488V67.384ZM467.967 67.384H485.967V72.52H467.967V67.384ZM518.988 85.384H525.324V97.864H518.988V85.384ZM535.116 85.384H541.5V97.864H535.116V85.384ZM510.156 96.952H550.38V102.136H510.156V96.952ZM530.22 64.984C539.772 64.984 546.828 69.688 546.828 76.936C546.828 84.184 539.772 88.84 530.22 88.84C520.62 88.84 513.612 84.184 513.612 76.936C513.612 69.688 520.62 64.984 530.22 64.984ZM530.22 69.976C524.028 69.976 519.9 72.52 519.9 76.936C519.9 81.304 524.028 83.896 530.22 83.896C536.411 83.896 540.54 81.304 540.54 76.936C540.54 72.52 536.411 69.976 530.22 69.976ZM565.4 65.896C568.952 65.896 571.8 66.792 573.944 68.584C576.12 70.344 577.208 72.936 577.208 76.36C577.208 79.176 576.248 81.448 574.328 83.176C572.44 84.904 569.96 85.8 566.888 85.864L566.6 89.272H557.192L556.904 79.096H560.936C562.824 79.096 564.264 78.888 565.256 78.472C566.28 78.056 566.792 77.384 566.792 76.456C566.792 75.848 566.632 75.384 566.312 75.064C566.024 74.712 565.624 74.536 565.112 74.536C564.472 74.536 563.992 74.744 563.672 75.16C563.384 75.544 563.24 76.056 563.24 76.696H553.208C553.112 74.712 553.496 72.904 554.36 71.272C555.256 69.64 556.632 68.344 558.488 67.384C560.344 66.392 562.648 65.896 565.4 65.896ZM562.04 103.384C560.184 103.384 558.696 102.888 557.576 101.896C556.456 100.904 555.896 99.656 555.896 98.152C555.896 96.616 556.456 95.352 557.576 94.36C558.696 93.336 560.184 92.824 562.04 92.824C563.864 92.824 565.336 93.336 566.456 94.36C567.576 95.352 568.136 96.616 568.136 98.152C568.136 99.656 567.576 100.904 566.456 101.896C565.336 102.888 563.864 103.384 562.04 103.384Z" fill="white" fill-opacity="0.9"/>
</svg>
